<svg id="Capa_1" data-name="Capa 1" xmlns="http://www.w3.org/2000/svg" xmlns:xlink="http://www.w3.org/1999/xlink" viewBox="0 0 502.2 320.22"><defs><style>.cls-1,.cls-2,.cls-3,.cls-4,.cls-5,.cls-6{stroke:#6dd5ed;stroke-miterlimit:10;}.cls-1{fill:url(#Degradado_sin_nombre_7);}.cls-2{fill:url(#Degradado_sin_nombre_4);}.cls-3{fill:url(#Degradado_sin_nombre_6);}.cls-4{fill:#fff;}.cls-5{fill:url(#Degradado_sin_nombre_6-2);}.cls-6{fill:url(#Degradado_sin_nombre_6-3);}.cls-7{font-size:54px;font-family:HarlowSolid, Harlow Solid Italic;}</style><linearGradient id="Degradado_sin_nombre_7" x1="112" y1="277.5" x2="310" y2="277.5" gradientUnits="userSpaceOnUse"><stop offset="0.04" stop-color="#2193b0"/><stop offset="1" stop-color="#6dd5ed"/></linearGradient><linearGradient id="Degradado_sin_nombre_4" x1="226" y1="341" x2="424" y2="341" gradientUnits="userSpaceOnUse"><stop offset="0" stop-color="#2193b0"/><stop offset="1" stop-color="#6dd5ed"/></linearGradient><linearGradient id="Degradado_sin_nombre_6" x1="292" y1="379.5" x2="525" y2="379.5" gradientUnits="userSpaceOnUse"><stop offset="0.05" stop-color="#2193b0"/><stop offset="1" stop-color="#6dd5ed"/></linearGradient><linearGradient id="Degradado_sin_nombre_6-2" x1="0.5" y1="211.72" x2="32.5" y2="211.72" xlink:href="#Degradado_sin_nombre_6"/><linearGradient id="Degradado_sin_nombre_6-3" x1="117.5" y1="266.72" x2="149.5" y2="266.72" xlink:href="#Degradado_sin_nombre_6"/></defs><title>LOGOPERROVECTOR</title><path class="cls-1" d="M286.71,259H135.29a26.5,26.5,0,0,0-16.46,5.42c-4.22,3.35-6.83,8-6.83,13.08,0,10.21,10.44,18.5,23.29,18.5H286.71a26.5,26.5,0,0,0,16.46-5.42c4.22-3.35,6.83-8,6.83-13.08C310,267.29,299.56,259,286.71,259Z" transform="translate(-55.5 -70.28)"/><path class="cls-2" d="M400.71,327H249.29a32.48,32.48,0,0,0-16.46,4.1c-4.22,2.54-6.83,6-6.83,9.9,0,7.73,10.44,14,23.29,14H400.71a32.48,32.48,0,0,0,16.46-4.1c4.22-2.54,6.83-6,6.83-9.9C424,333.27,413.56,327,400.71,327Z" transform="translate(-55.5 -70.28)"/><path class="cls-3" d="M497.59,369H319.41A56.2,56.2,0,0,0,300,372.08c-5,1.9-8,4.52-8,7.42,0,5.8,12.28,10.5,27.41,10.5H497.59A56.2,56.2,0,0,0,517,386.92c5-1.9,8-4.52,8-7.42C525,373.7,512.72,369,497.59,369Z" transform="translate(-55.5 -70.28)"/><path class="cls-4" d="M506,285h10a10,10,0,0,0,0-20H490.68c-5.77-8.29-9.92-14.51-11.66-17.28-.34-.55-.71-1.12-1.08-1.72H503a10,10,0,0,0,0-20H465.23l-9.59-15H475a10,10,0,0,0,0-20H442.84L423,160c-8.86-17.05-32.82-38.25-53,14,0,0-80-7-69-59,0,0,21-23,21-43,0,0-44-20-98,102,0,0-25,6-11,45,0,0,85,87,234,159,0,0,79,20,106-18C553,360,578,342,506,285Z" transform="translate(-55.5 -70.28)"/><ellipse class="cls-5" cx="16.5" cy="211.72" rx="16" ry="10"/><ellipse class="cls-6" cx="133.5" cy="266.72" rx="16" ry="10"/><text class="cls-7" transform="translate(285.21 179.82) rotate(25.48)">F</text></svg>